<?xml version="1.0" standalone="no"?>
<!DOCTYPE svg PUBLIC "-//W3C//DTD SVG 20010904//EN"
 "http://www.w3.org/TR/2001/REC-SVG-20010904/DTD/svg10.dtd">
<svg version="1.0" xmlns="http://www.w3.org/2000/svg"
 width="300.000000pt" height="300.000000pt" viewBox="0 0 300.000000 300.000000"
 preserveAspectRatio="xMidYMid meet">
<metadata>
Created by potrace 1.11, written by Peter Selinger 2001-2013
</metadata>
<g transform="translate(0.000000,300.000000) scale(0.100000,-0.100000)"
fill="#000000" stroke="none">
<path d="M619 2998 c-3 -7 -7 -83 -13 -242 -5 -128 -11 -174 -23 -192 -11 -17
-19 -21 -27 -15 -7 6 -21 10 -31 11 -11 0 -47 2 -80 4 -33 1 -80 -2 -103 -7
l-44 -10 5 -51 c3 -28 7 -105 9 -171 2 -66 9 -129 15 -140 17 -31 21 -151 5
-147 -8 1 -13 -5 -12 -15 1 -10 1 -20 0 -23 -1 -3 -2 -25 -4 -50 -2 -34 4 -54
23 -84 42 -63 51 -80 51 -98 0 -9 5 -20 10 -23 6 -3 10 -19 10 -36 0 -16 4
-29 8 -29 14 0 92 -78 92 -92 -1 -15 -75 -73 -107 -82 -21 -7 -25 -13 -22 -32
1 -3 -10 -18 -23 -32 -21 -23 -24 -36 -23 -94 1 -38 -2 -68 -6 -68 -3 0 -6 -8
-6 -17 0 -40 -4 -51 -28 -79 -14 -16 -25 -32 -25 -37 0 -4 -5 -6 -12 -5 -14 3
-29 -60 -17 -68 12 -7 11 -51 -1 -74 -14 -25 22 -64 51 -57 36 10 56 -78 25
-112 -9 -10 -13 -20 -10 -24 8 -8 -62 -21 -74 -13 -5 3 -15 -8 -22 -24 -7 -17
-18 -30 -24 -30 -7 0 -12 -15 -11 -36 0 -31 5 -38 35 -51 188 -79 726 -299
1002 -408 189 -74 352 -139 363 -144 11 -5 70 -29 130 -53 l110 -43 498 -3
497 -4 0 208 0 207 -30 -45 c-32 -48 -81 -87 -141 -112 -54 -22 -84 -28 -184
-32 -270 -11 -417 115 -430 365 -6 108 14 199 57 262 34 50 96 97 141 106 36
7 34 16 -8 36 -51 24 -89 61 -116 115 -21 41 -24 60 -24 157 0 92 4 118 22
157 30 66 102 132 171 159 65 24 201 34 270 18 144 -32 238 -129 260 -269 6
-34 9 262 8 782 0 461 -3 839 -6 839 -3 1 -115 3 -250 4 -570 5 -1182 18
-1460 30 -202 9 -470 16 -471 13z m1062 -1410 c0 -13 1 -212 2 -443 l2 -420
72 0 73 0 0 -87 0 -88 -74 0 -75 0 1 -146 c0 -80 -3 -148 -6 -151 -3 -3 -49
-7 -101 -7 l-95 -1 -1 45 c0 25 0 93 0 153 l1 107 -245 0 -245 0 0 95 0 95
221 407 c122 225 229 420 237 436 16 27 17 27 124 27 105 0 108 -1 109 -22z"/>
<path d="M1395 1018 c-11 -24 -20 -44 -21 -46 -1 -2 -17 -6 -36 -9 -18 -3 -40
-7 -48 -8 -8 -2 -19 -4 -25 -4 -5 -1 9 -19 33 -41 28 -26 41 -47 38 -58 -2 -9
-7 -34 -11 -55 l-6 -38 50 26 51 25 50 -25 c28 -14 50 -22 50 -18 -1 5 -5 28
-10 53 -8 44 -8 46 33 88 23 23 37 42 32 43 -6 0 -21 3 -35 5 -14 3 -34 6 -45
8 -12 1 -30 21 -45 49 -14 26 -28 47 -31 47 -3 0 -14 -19 -24 -42z"/>
<path d="M2372 1454 c-38 -9 -89 -66 -102 -114 -16 -60 -8 -169 17 -217 27
-54 88 -84 161 -79 111 8 165 86 158 230 -4 76 -34 139 -77 162 -32 16 -117
26 -157 18z"/>
<path d="M2800 1228 c0 -12 -7 -48 -16 -80 -19 -68 -72 -129 -137 -158 -36
-16 -39 -20 -22 -26 87 -30 131 -61 164 -115 l21 -34 0 218 c0 119 -2 217 -5
217 -3 0 -5 -10 -5 -22z"/>
<path d="M2336 867 c-27 -15 -48 -38 -65 -72 -24 -45 -26 -60 -25 -165 0 -126
11 -165 59 -213 49 -48 140 -60 210 -28 77 35 106 94 111 226 5 139 -33 227
-113 261 -50 22 -131 17 -177 -9z"/>
</g>
</svg>
